// Generation Options: --volume 5 --releasevolume -10 --articulation Normal

<group>
sw_default=36
sw_lokey=36
sw_hikey=39
sw_last=36
sw_label=Normal
trigger=attack
ampeg_attack=0.004000
ampeg_release=0.100000

<region>
sample=Harmonica-Hohner-Super64/Sustains/Normal/Hohner-Super64_Normal _C2.wav
pitch_keycenter=48
lokey=48
hikey=50
volume=2.054550

<region>
sample=Harmonica-Hohner-Super64/Sustains/Normal/Hohner-Super64_Normal _E2.wav
pitch_keycenter=52
lokey=51
hikey=53
tune=1
volume=6.192994

<region>
sample=Harmonica-Hohner-Super64/Sustains/Normal/Hohner-Super64_Normal _G2.wav
pitch_keycenter=55
lokey=54
hikey=57
tune=3
volume=6.435344

<region>
sample=Harmonica-Hohner-Super64/Sustains/Normal/Hohner-Super64_Normal _C3.wav
pitch_keycenter=60
lokey=58
hikey=62
tune=1
volume=7.608488

<region>
sample=Harmonica-Hohner-Super64/Sustains/Normal/Hohner-Super64_Normal _E3.wav
pitch_keycenter=64
lokey=63
hikey=65
volume=4.290834

<region>
sample=Harmonica-Hohner-Super64/Sustains/Normal/Hohner-Super64_Normal _G3.wav
pitch_keycenter=67
lokey=66
hikey=69
volume=5.303144

<region>
sample=Harmonica-Hohner-Super64/Sustains/Normal/Hohner-Super64_Normal _C4.wav
pitch_keycenter=72
lokey=70
hikey=74
volume=3.088584

<region>
sample=Harmonica-Hohner-Super64/Sustains/Normal/Hohner-Super64_Normal _E4.wav
pitch_keycenter=76
lokey=75
hikey=77
tune=1
volume=7.983352

<region>
sample=Harmonica-Hohner-Super64/Sustains/Normal/Hohner-Super64_Normal _G4.wav
pitch_keycenter=79
lokey=78
hikey=81
offset=167
volume=2.653258

<region>
sample=Harmonica-Hohner-Super64/Sustains/Normal/Hohner-Super64_Normal _C5.wav
pitch_keycenter=84
lokey=82
hikey=86
volume=5.396118

<region>
sample=Harmonica-Hohner-Super64/Sustains/Normal/Hohner-Super64_Normal _E5.wav
pitch_keycenter=88
lokey=87
hikey=89
volume=6.785430

<region>
sample=Harmonica-Hohner-Super64/Sustains/Normal/Hohner-Super64_Normal _G5.wav
pitch_keycenter=91
lokey=90
hikey=93
volume=7.347265

<region>
sample=Harmonica-Hohner-Super64/Sustains/Normal/Hohner-Super64_Normal _C6.wav
pitch_keycenter=96
lokey=94
hikey=97
volume=1.651734

<group>
sw_default=36
sw_lokey=36
sw_hikey=39
sw_last=36
sw_label=Normal
trigger=release
ampeg_attack=0.100000

<region>
sample=Harmonica-Hohner-Super64/Releases/Normal/Hohner-Super64_Normal _rel_C2.wav
pitch_keycenter=48
lokey=48
hikey=50
tune=-12
volume=-8.745363

<region>
sample=Harmonica-Hohner-Super64/Releases/Normal/Hohner-Super64_Normal _rel_E2.wav
pitch_keycenter=52
lokey=51
hikey=53
tune=-23
volume=-10.086424

<region>
sample=Harmonica-Hohner-Super64/Releases/Normal/Hohner-Super64_Normal _rel_G2.wav
pitch_keycenter=55
lokey=54
hikey=57
tune=-25
volume=-7.198257

<region>
sample=Harmonica-Hohner-Super64/Releases/Normal/Hohner-Super64_Normal _rel_C3.wav
pitch_keycenter=60
lokey=58
hikey=62
tune=-14
volume=-3.621373

<region>
sample=Harmonica-Hohner-Super64/Releases/Normal/Hohner-Super64_Normal _rel_E3.wav
pitch_keycenter=64
lokey=63
hikey=65
tune=-8
volume=-11.026255

<region>
sample=Harmonica-Hohner-Super64/Releases/Normal/Hohner-Super64_Normal _rel_G3.wav
pitch_keycenter=67
lokey=66
hikey=69
tune=-3
volume=-15.195632

<region>
sample=Harmonica-Hohner-Super64/Releases/Normal/Hohner-Super64_Normal _rel_C4.wav
pitch_keycenter=72
lokey=70
hikey=74
tune=-6
volume=-7.418909

<region>
sample=Harmonica-Hohner-Super64/Releases/Normal/Hohner-Super64_Normal _rel_E4.wav
pitch_keycenter=76
lokey=75
hikey=77
tune=-4
volume=-5.045847

<region>
sample=Harmonica-Hohner-Super64/Releases/Normal/Hohner-Super64_Normal _rel_G4.wav
pitch_keycenter=79
lokey=78
hikey=81
tune=-2
volume=-10.801915

<region>
sample=Harmonica-Hohner-Super64/Releases/Normal/Hohner-Super64_Normal _rel_C5.wav
pitch_keycenter=84
lokey=82
hikey=86
tune=-5
volume=-14.100892

<region>
sample=Harmonica-Hohner-Super64/Releases/Normal/Hohner-Super64_Normal _rel_E5.wav
pitch_keycenter=88
lokey=87
hikey=89
volume=-11.331924

<region>
sample=Harmonica-Hohner-Super64/Releases/Normal/Hohner-Super64_Normal _rel_G5.wav
pitch_keycenter=91
lokey=90
hikey=93
tune=-59
volume=-5.321724

<region>
sample=Harmonica-Hohner-Super64/Releases/Normal/Hohner-Super64_Normal _rel_C6.wav
pitch_keycenter=96
lokey=94
hikey=97
tune=-3
volume=-6.741646



// Generation Options: --volume 5 --articulation Vib

<group>
sw_default=36
sw_lokey=36
sw_hikey=39
sw_last=37
sw_label=Vib
trigger=attack
ampeg_attack=0.004000
ampeg_release=0.100000

<region>
sample=Harmonica-Hohner-Super64/Sustains/Vib/Hohner-Super64_Vib_C2.wav
pitch_keycenter=48
lokey=48
hikey=50
volume=6.155485

<region>
sample=Harmonica-Hohner-Super64/Sustains/Vib/Hohner-Super64_Vib_E2.wav
pitch_keycenter=52
lokey=51
hikey=53
volume=2.601531

<region>
sample=Harmonica-Hohner-Super64/Sustains/Vib/Hohner-Super64_Vib_G2.wav
pitch_keycenter=55
lokey=54
hikey=57
tune=1
volume=5.853160

<region>
sample=Harmonica-Hohner-Super64/Sustains/Vib/Hohner-Super64_Vib_C3.wav
pitch_keycenter=60
lokey=58
hikey=62
volume=8.231031

<region>
sample=Harmonica-Hohner-Super64/Sustains/Vib/Hohner-Super64_Vib_E3.wav
pitch_keycenter=64
lokey=63
hikey=65
tune=1
volume=5.291799

<region>
sample=Harmonica-Hohner-Super64/Sustains/Vib/Hohner-Super64_Vib_G3.wav
pitch_keycenter=67
lokey=66
hikey=69
volume=4.487690

<region>
sample=Harmonica-Hohner-Super64/Sustains/Vib/Hohner-Super64_Vib_C4.wav
pitch_keycenter=72
lokey=70
hikey=74
volume=6.237797

<region>
sample=Harmonica-Hohner-Super64/Sustains/Vib/Hohner-Super64_Vib_E4.wav
pitch_keycenter=76
lokey=75
hikey=77
volume=4.126783

<region>
sample=Harmonica-Hohner-Super64/Sustains/Vib/Hohner-Super64_Vib_G4.wav
pitch_keycenter=79
lokey=78
hikey=81
volume=4.421719

<region>
sample=Harmonica-Hohner-Super64/Sustains/Vib/Hohner-Super64_Vib_C5.wav
pitch_keycenter=84
lokey=82
hikey=86
offset=197
volume=4.245991

<region>
sample=Harmonica-Hohner-Super64/Sustains/Vib/Hohner-Super64_Vib_E5.wav
pitch_keycenter=88
lokey=87
hikey=89
offset=1437
volume=4.487845

<region>
sample=Harmonica-Hohner-Super64/Sustains/Vib/Hohner-Super64_Vib_G5.wav
pitch_keycenter=91
lokey=90
hikey=93
tune=-1
volume=5.561965
ampeg_attack=0.1

<region>
sample=Harmonica-Hohner-Super64/Sustains/Vib/Hohner-Super64_Vib_C6.wav
pitch_keycenter=96
lokey=94
hikey=97
tune=-1
volume=6.068372
ampeg_attack=0.1

<group>
sw_default=36
sw_lokey=36
sw_hikey=39
sw_last=37
sw_label=Vib
trigger=release
ampeg_attack=0.100000
ampeg_sustain=0
ampeg_decay=0.5

<region>
sample=Harmonica-Hohner-Super64/Releases/Vib/Hohner-Super64_Vib_rel_C2.wav
pitch_keycenter=48
lokey=48
hikey=50
tune=-12
volume=-0.364296

<region>
sample=Harmonica-Hohner-Super64/Releases/Vib/Hohner-Super64_Vib_rel_E2.wav
pitch_keycenter=52
lokey=51
hikey=53
tune=-31
volume=0.431520

<region>
sample=Harmonica-Hohner-Super64/Releases/Vib/Hohner-Super64_Vib_rel_G2.wav
pitch_keycenter=55
lokey=54
hikey=57
tune=-33
volume=1.645683

<region>
sample=Harmonica-Hohner-Super64/Releases/Vib/Hohner-Super64_Vib_rel_C3.wav
pitch_keycenter=60
lokey=58
hikey=62
tune=-9
volume=2.819898

<region>
sample=Harmonica-Hohner-Super64/Releases/Vib/Hohner-Super64_Vib_rel_E3.wav
pitch_keycenter=64
lokey=63
hikey=65
tune=-12
volume=2.104748

<region>
sample=Harmonica-Hohner-Super64/Releases/Vib/Hohner-Super64_Vib_rel_G3.wav
pitch_keycenter=67
lokey=66
hikey=69
volume=1.656009

<region>
sample=Harmonica-Hohner-Super64/Releases/Vib/Hohner-Super64_Vib_rel_C4.wav
pitch_keycenter=72
lokey=70
hikey=74
tune=-1
volume=-2.834073

<region>
sample=Harmonica-Hohner-Super64/Releases/Vib/Hohner-Super64_Vib_rel_E4.wav
pitch_keycenter=76
lokey=75
hikey=77
tune=-15
volume=4.550139

<region>
sample=Harmonica-Hohner-Super64/Releases/Vib/Hohner-Super64_Vib_rel_G4.wav
pitch_keycenter=79
lokey=78
hikey=81
tune=-16
volume=-2.222264

<region>
sample=Harmonica-Hohner-Super64/Releases/Vib/Hohner-Super64_Vib_rel_C5.wav
pitch_keycenter=84
lokey=82
hikey=86
tune=-7
volume=-4.269277

<region>
sample=Harmonica-Hohner-Super64/Releases/Vib/Hohner-Super64_Vib_rel_E5.wav
pitch_keycenter=88
lokey=87
hikey=89
tune=-4
volume=0.829168

<region>
sample=Harmonica-Hohner-Super64/Releases/Vib/Hohner-Super64_Vib_rel_G5.wav
pitch_keycenter=91
lokey=90
hikey=93
tune=-7
volume=7.719509

<region>
sample=Harmonica-Hohner-Super64/Releases/Vib/Hohner-Super64_Vib_rel_C6.wav
pitch_keycenter=96
lokey=94
hikey=97
volume=1.161332



// Generation Options: --volume 5 --attack 0.1 --articulation Accented

<group>
sw_default=36
sw_lokey=36
sw_hikey=39
sw_last=38
sw_label=Accented
trigger=attack
ampeg_attack=0.100000
ampeg_release=0.100000

<region>
sample=Harmonica-Hohner-Super64/Sustains/Accented/Hohner-Super64_Accented_C2.wav
pitch_keycenter=48
lokey=48
hikey=50
offset=46
volume=5.631504

<region>
sample=Harmonica-Hohner-Super64/Sustains/Accented/Hohner-Super64_Accented_E2.wav
pitch_keycenter=52
lokey=51
hikey=53
volume=5.539772

<region>
sample=Harmonica-Hohner-Super64/Sustains/Accented/Hohner-Super64_Accented_G2.wav
pitch_keycenter=55
lokey=54
hikey=57
volume=4.251149

<region>
sample=Harmonica-Hohner-Super64/Sustains/Accented/Hohner-Super64_Accented_C3.wav
pitch_keycenter=60
lokey=58
hikey=62
volume=6.593665

<region>
sample=Harmonica-Hohner-Super64/Sustains/Accented/Hohner-Super64_Accented_E3.wav
pitch_keycenter=64
lokey=63
hikey=65
volume=6.490837

<region>
sample=Harmonica-Hohner-Super64/Sustains/Accented/Hohner-Super64_Accented_G3.wav
pitch_keycenter=67
lokey=66
hikey=69
volume=3.820164

<region>
sample=Harmonica-Hohner-Super64/Sustains/Accented/Hohner-Super64_Accented_C4.wav
pitch_keycenter=72
lokey=70
hikey=74
volume=3.474043

<region>
sample=Harmonica-Hohner-Super64/Sustains/Accented/Hohner-Super64_Accented_E4.wav
pitch_keycenter=76
lokey=75
hikey=77
volume=3.213282

<region>
sample=Harmonica-Hohner-Super64/Sustains/Accented/Hohner-Super64_Accented_G4.wav
pitch_keycenter=79
lokey=78
hikey=81
volume=8.207255

<region>
sample=Harmonica-Hohner-Super64/Sustains/Accented/Hohner-Super64_Accented_C5.wav
pitch_keycenter=84
lokey=82
hikey=86
volume=6.466968

<region>
sample=Harmonica-Hohner-Super64/Sustains/Accented/Hohner-Super64_Accented_E5.wav
pitch_keycenter=88
lokey=87
hikey=89
volume=4.605333

<region>
sample=Harmonica-Hohner-Super64/Sustains/Accented/Hohner-Super64_Accented_G5.wav
pitch_keycenter=91
lokey=90
hikey=93
volume=5.655453

<region>
sample=Harmonica-Hohner-Super64/Sustains/Accented/Hohner-Super64_Accented_C6.wav
pitch_keycenter=96
lokey=94
hikey=97
tune=-1
volume=3.101017

<group>
sw_default=36
sw_lokey=36
sw_hikey=39
sw_last=38
sw_label=Accented
trigger=release
ampeg_attack=0.100000

<region>
sample=Harmonica-Hohner-Super64/Releases/Accented/Hohner-Super64_Accented_rel_C2.wav
pitch_keycenter=48
lokey=48
hikey=50
tune=-16
volume=-3.591751

<region>
sample=Harmonica-Hohner-Super64/Releases/Accented/Hohner-Super64_Accented_rel_E2.wav
pitch_keycenter=52
lokey=51
hikey=53
tune=-14
volume=2.049665

<region>
sample=Harmonica-Hohner-Super64/Releases/Accented/Hohner-Super64_Accented_rel_G2.wav
pitch_keycenter=55
lokey=54
hikey=57
tune=-28
volume=4.022491

<region>
sample=Harmonica-Hohner-Super64/Releases/Accented/Hohner-Super64_Accented_rel_C3.wav
pitch_keycenter=60
lokey=58
hikey=62
tune=-18
volume=5.935085

<region>
sample=Harmonica-Hohner-Super64/Releases/Accented/Hohner-Super64_Accented_rel_E3.wav
pitch_keycenter=64
lokey=63
hikey=65
tune=-6
volume=-1.245656

<region>
sample=Harmonica-Hohner-Super64/Releases/Accented/Hohner-Super64_Accented_rel_G3.wav
pitch_keycenter=67
lokey=66
hikey=69
tune=-5
volume=-1.500210

<region>
sample=Harmonica-Hohner-Super64/Releases/Accented/Hohner-Super64_Accented_rel_C4.wav
pitch_keycenter=72
lokey=70
hikey=74
tune=-6
volume=-1.914618

<region>
sample=Harmonica-Hohner-Super64/Releases/Accented/Hohner-Super64_Accented_rel_E4.wav
pitch_keycenter=76
lokey=75
hikey=77
tune=-6
volume=0.611558

<region>
sample=Harmonica-Hohner-Super64/Releases/Accented/Hohner-Super64_Accented_rel_G4.wav
pitch_keycenter=79
lokey=78
hikey=81
tune=-2
volume=-1.634935

<region>
sample=Harmonica-Hohner-Super64/Releases/Accented/Hohner-Super64_Accented_rel_C5.wav
pitch_keycenter=84
lokey=82
hikey=86
tune=-5
volume=2.608489

<region>
sample=Harmonica-Hohner-Super64/Releases/Accented/Hohner-Super64_Accented_rel_E5.wav
pitch_keycenter=88
lokey=87
hikey=89
tune=6
volume=1.830289

<region>
sample=Harmonica-Hohner-Super64/Releases/Accented/Hohner-Super64_Accented_rel_G5.wav
pitch_keycenter=91
lokey=90
hikey=93
tune=-7
volume=-2.313956

<region>
sample=Harmonica-Hohner-Super64/Releases/Accented/Hohner-Super64_Accented_rel_C6.wav
pitch_keycenter=96
lokey=94
hikey=97
tune=36
volume=2.158776



